<svg
  viewBox="0 0 1024 1024"
  xmlns="http://www.w3.org/2000/svg"
>
  <path
    d="M 160.5,-0.5 C 394.5,-0.5 628.5,-0.5 862.5,-0.5C 938.724,10.8834 989.89,52.8834 1016,125.5C 1019.23,137.15 1021.73,148.816 1023.5,160.5C 1023.5,394.5 1023.5,628.5 1023.5,862.5C 1012.12,938.724 970.117,989.89 897.5,1016C 885.85,1019.23 874.184,1021.73 862.5,1023.5C 628.5,1023.5 394.5,1023.5 160.5,1023.5C 84.2765,1012.12 33.1098,970.117 7,897.5C 3.77193,885.85 1.27193,874.184 -0.5,862.5C -0.5,628.5 -0.5,394.5 -0.5,160.5C 10.8834,84.2765 52.8834,33.1098 125.5,7C 137.15,3.77193 148.816,1.27193 160.5,-0.5 Z"
    fill="#8c029b"
  />

  <path
    d="M 490.5,148.5 C 601.588,141.836 694.421,179.169 769,260.5C 818.139,318.193 844.806,385.193 849,461.5C 849.667,522.167 849.667,582.833 849,643.5C 844.79,655.69 836.29,660.856 823.5,659C 815.862,657.363 810.695,652.863 808,645.5C 807.667,585.167 807.333,524.833 807,464.5C 805.749,453.493 804.582,442.493 803.5,431.5C 765.61,430.865 729.443,438.199 695,453.5C 696.626,552.118 696.959,650.784 696,749.5C 692.077,764.89 682.244,770.723 666.5,767C 660.667,764.5 656.5,760.333 654,754.5C 653.667,661.833 653.333,569.167 653,476.5C 587.805,523.763 551.139,587.43 543,667.5C 542.667,731.833 542.333,796.167 542,860.5C 536.113,874.204 525.947,878.704 511.5,874C 505.93,871.057 502.097,866.557 500,860.5C 499.667,797.5 499.333,734.5 499,671.5C 490.819,580.948 447.986,512.114 370.5,465C 329.63,442.11 285.63,430.944 238.5,431.5C 237.445,443.161 236.279,454.828 235,466.5C 234.667,526.5 234.333,586.5 234,646.5C 226.59,658.748 216.09,662.248 202.5,657C 197.717,653.564 194.551,649.064 193,643.5C 192.333,582.167 192.333,520.833 193,459.5C 199.601,366.881 237.101,289.714 305.5,228C 359.068,182.888 420.735,156.388 490.5,148.5 Z"
    fill="#fff"
  />

  <path
    d="M 493.5,191.5 C 596.297,185.119 680.464,221.119 746,299.5C 766.923,326.575 782.756,356.409 793.5,389C 690.022,393.649 608.522,438.149 549,522.5C 537.816,539.868 528.483,558.201 521,577.5C 495.611,514.938 454.111,465.938 396.5,430.5C 418.745,378.528 458.079,349.694 514.5,344C 563.43,343.177 602.097,362.511 630.5,402C 631.5,402.667 632.5,402.667 633.5,402C 645.175,395.148 657.175,388.982 669.5,383.5C 621.547,315.197 556.547,290.03 474.5,308C 419.624,324.717 380.624,359.217 357.5,411.5C 322.627,397.299 286.294,389.799 248.5,389C 283.798,290.363 351.798,227.029 452.5,199C 466.214,196.022 479.881,193.522 493.5,191.5 Z"
    fill="#8c029b"
  />

  <path
    d="M 346.5,489.5 C 361.761,496.252 375.594,505.252 388,516.5C 388.667,595.833 388.667,675.167 388,754.5C 382.052,766.384 372.552,770.551 359.5,767C 353.18,764.014 349.013,759.181 347,752.5C 346.5,664.834 346.333,577.167 346.5,489.5 Z"
    fill="#fff"
  />
</svg>
